<svg height="800" width="800" xmlns="http://www.w3.org/2000/svg" viewBox="0 0 512 512" xml:space="preserve">
  <path fill="white" d="M387.268 239.582a8.53 8.53 0 0 0-9.301 1.852L256 363.4 134.033 241.433a8.546 8.546 0 0 0-9.301-1.852 8.535 8.535 0 0 0-5.265 7.885V384c0 2.364.981 4.625 2.714 6.238l128 119.467c1.638 1.527 3.729 2.295 5.82 2.295s4.181-.768 5.828-2.295l128-119.467a8.547 8.547 0 0 0 2.705-6.238V247.466a8.534 8.534 0 0 0-5.266-7.884z"/>
  <path fill="white" d="M387.268.648a8.532 8.532 0 0 0-9.301 1.852L256 124.467 134.033 2.5c-2.441-2.449-6.101-3.157-9.301-1.852a8.535 8.535 0 0 0-5.265 7.885v136.533c0 2.364.981 4.625 2.714 6.238l128 119.467c1.638 1.528 3.729 2.295 5.82 2.295s4.181-.768 5.828-2.295l128-119.467a8.547 8.547 0 0 0 2.705-6.238V8.533a8.537 8.537 0 0 0-5.266-7.885z"/>
</svg>
